<svg xmlns="http://www.w3.org/2000/svg" viewBox="0 0 1024 1024" role="img" aria-hidden="true">
  <circle cx="512" cy="512" r="500" fill="#f7f8fa" stroke="#d5dbe1" stroke-width="4"/>
  <path d="M528 150 L529 155 L533 144 L546 135 L564 134 L575 138 L578 137 L563 131 L545 130 L547 133 L536 137 L530 144 Z M620 634 L638 651 L648 668 L644 685 L645 691 L646 683 L653 666 L680 632 L657 654 L650 666 L647 664 L641 651 L629 639 Z M343 386 L343 403 L346 415 L361 440 L375 454 L388 461 L399 462 L412 456 L418 468 L422 488 L424 539 L419 583 L413 598 L401 611 L372 627 L373 642 L381 658 L396 673 L424 687 L449 693 L458 700 L465 742 L474 776 L478 802 L480 803 L486 782 L507 734 L520 698 L527 693 L550 688 L580 676 L576 664 L576 645 L583 625 L574 620 L565 607 L561 593 L560 575 L538 570 L502 552 L470 530 L449 511 L449 508 L476 527 L516 546 L551 557 L578 559 L597 552 L608 541 L639 488 L653 457 L660 431 L661 408 L656 381 L655 362 L650 363 L648 358 L646 358 L647 369 L645 375 L640 380 L633 380 L629 376 L628 362 L631 357 L621 361 L613 370 L611 370 L611 366 L619 355 L631 348 L653 348 L652 352 L656 354 L658 326 L653 323 L643 322 L611 329 L611 325 L616 318 L632 312 L645 311 L656 316 L652 295 L643 268 L630 245 L610 227 L600 223 L588 223 L591 217 L581 221 L575 204 L564 191 L564 186 L568 181 L584 174 L601 173 L617 176 L625 180 L627 179 L609 171 L589 170 L574 175 L563 186 L560 186 L558 182 L537 163 L536 164 L546 174 L546 177 L527 171 L507 171 L483 179 L485 180 L505 174 L528 174 L549 180 L557 186 L559 192 L568 202 L572 213 L572 221 L569 222 L564 218 L555 216 L562 220 L563 224 L547 224 L533 228 L523 234 L514 243 L502 262 L487 302 L475 325 L450 354 L435 363 L429 364 L429 372 L421 396 L421 417 L428 440 L423 437 L416 417 L415 399 L417 391 L414 392 L412 404 L413 427 L407 412 L407 393 L398 392 L390 387 L377 370 L370 367 L358 367 L349 373 Z M470 320 L471 322 L477 313 L496 263 L510 241 L499 251 L492 261 L479 289 Z M381 472 L381 483 L386 503 L393 515 L400 521 L392 510 L386 496 L383 473 Z M330 311 L331 312 L342 303 L356 296 L400 277 L419 265 L446 243 L480 208 L447 239 L419 261 L396 275 L354 294 Z M154 822 L164 770 L177 731 L193 702 L211 682 L227 670 L245 660 L339 623 L364 608 L379 607 L388 610 L405 596 L410 585 L410 583 L402 582 L391 576 L381 566 L377 559 L356 557 L342 550 L332 541 L325 532 L316 513 L312 497 L311 482 L309 482 L292 463 L281 437 L279 423 L280 402 L284 383 L290 367 L287 344 L289 317 L295 297 L304 280 L305 266 L312 237 L328 203 L347 177 L377 149 L404 133 L426 125 L445 121 L467 120 L491 124 L507 131 L515 126 L531 122 L554 122 L570 126 L585 133 L618 160 L629 171 L633 180 L651 189 L672 208 L681 220 L688 234 L693 251 L695 265 L694 280 L703 303 L707 322 L707 346 L702 365 L697 375 L713 410 L716 423 L716 444 L710 464 L695 489 L692 499 L692 515 L697 528 L709 541 L700 537 L694 531 L688 520 L686 511 L688 494 L669 504 L670 520 L666 535 L667 539 L677 544 L690 556 L701 577 L701 599 L693 619 L698 624 L757 643 L788 657 L808 671 L824 688 L840 716 L851 748 L860 793 L864 832 L856 839 L851 794 L842 749 L833 722 L815 691 L799 675 L779 662 L746 648 L704 635 L711 650 L712 666 L705 687 L693 700 L698 712 L700 724 L698 741 L688 758 L677 766 L679 783 L676 795 L666 808 L653 816 L655 820 L655 830 L651 833 L651 842 L649 846 L644 849 L656 884 L659 901 L658 918 L654 930 L650 937 L642 943 L650 928 L653 917 L653 900 L648 883 L649 908 L646 922 L638 941 L629 955 L619 965 L611 970 L607 970 L620 954 L627 941 L627 935 L624 944 L618 952 L601 967 L585 973 L567 972 L566 969 L573 967 L578 962 L581 954 L580 943 L572 927 L568 910 L570 887 L578 868 L567 880 L561 896 L561 910 L565 923 L561 920 L557 911 L556 891 L560 878 L571 861 L587 846 L600 838 L597 833 L597 826 L601 821 L601 812 L608 803 L597 790 L593 772 L595 761 L602 748 L597 744 L590 732 L588 724 L589 711 L560 723 L533 728 L530 726 L580 711 L592 704 L598 692 L583 681 L566 690 L530 699 L524 704 L517 728 L492 786 L484 810 L479 836 L476 838 L472 802 L457 739 L452 704 L446 699 L426 695 L398 683 L379 667 L368 649 L364 631 L367 619 L371 616 L376 618 L380 614 L366 615 L338 632 L252 666 L230 678 L217 688 L198 710 L181 744 L168 792 L162 831 Z M394 366 L394 368 L410 366 L426 355 L432 347 L414 360 L404 365 Z M639 562 L640 565 L647 555 L653 542 L655 530 Z M667 489 L667 492 L671 489 L677 475 L679 464 L678 445 L676 466 L672 480 Z M353 388 L358 381 L368 380 L381 389 L388 402 L385 421 L390 428 L397 432 L396 436 L380 430 L370 419 L370 407 L374 401 L380 399 L379 395 L368 385 L359 385 L355 389 L355 392 L353 392 Z M338 638 L341 636 L343 651 L349 667 L368 692 L387 706 L405 715 L441 725 L442 728 L421 725 L396 716 L368 698 L357 687 L345 669 L339 651 Z M305 403 L305 405 L307 403 L315 381 L331 360 L354 341 L393 316 L355 337 L334 352 L317 372 L310 386 Z M228 805 L231 807 L239 832 L252 862 L252 818 L250 802 L242 764 L231 732 L232 730 L234 731 L240 743 L251 774 L260 819 L261 910 L252 906 L251 878 L235 836 Z M698 683 L699 685 L702 681 L706 669 L706 655 L702 644 L703 667 Z M677 271 L682 287 L685 327 L688 309 L688 291 Z M398 337 L400 338 L416 330 L430 320 L432 315 L437 311 L437 315 L432 320 L434 321 L442 313 L462 282 L468 276 L481 249 L496 226 L516 208 L540 200 L522 203 L499 218 L483 239 L466 276 L452 291 L450 296 L418 325 Z M600 212 L615 212 L630 216 L646 225 L659 238 L651 227 L640 218 L630 213 L619 210 Z M333 451 L333 466 L336 483 L340 495 L352 515 L344 499 L337 473 L337 431 Z M431 357 L431 360 L437 358 L453 344 L463 326 L469 305 L452 329 L438 342 Z M634 710 L640 718 L645 730 L645 734 L639 746 L640 748 L646 736 L659 723 L681 708 L665 714 L648 730 L646 730 L640 715 Z M597 659 L601 669 L609 680 L639 702 L630 691 L609 676 Z M675 494 L676 496 L682 493 L691 485 L702 465 L708 445 L709 432 L706 415 L692 385 L683 397 L690 429 L690 455 L685 477 Z M715 919 L721 841 L731 791 L751 743 L762 725 L770 715 L776 711 L754 749 L738 792 L730 833 L728 868 L760 797 L763 795 L763 799 L730 880 L726 897 L725 921 L715 927 Z M381 553 L382 556 L386 556 Z M481 370 L488 370 L503 358 L523 351 L536 351 L542 354 L549 353 L545 358 L548 360 L554 359 L552 362 L549 362 L553 368 L552 370 L542 364 L542 376 L538 383 L534 385 L526 385 L520 377 L520 367 L523 361 L511 363 L501 368 L493 375 L485 374 Z M312 276 L312 278 L314 277 L322 263 L343 240 L380 211 L370 216 L344 235 L326 253 Z M663 709 L665 710 L673 703 L682 692 L689 674 L679 692 Z M319 489 L324 515 L335 535 L352 549 L375 555 L374 549 L358 540 L341 524 L330 509 L323 492 Z M658 641 L659 642 L666 635 L674 621 L678 607 L678 594 L672 619 Z M599 768 L599 782 L604 791 L600 775 L601 766 Z M604 826 L605 833 L625 835 L642 843 L644 841 L644 835 L636 826 L647 829 L649 823 L645 818 L629 812 L610 811 L607 816 L609 820 L622 820 L630 825 L607 824 Z M471 340 L489 325 L513 316 L545 316 L557 320 L561 325 L560 328 L556 330 L530 327 L506 328 L489 333 L474 342 L471 342 Z M688 341 L688 349 L694 368 L696 367 L700 353 L701 328 L695 304 L692 328 Z M286 413 L286 428 L291 448 L302 466 L310 473 L302 458 L295 436 L292 416 L293 388 L290 392 Z M395 160 L428 146 L455 141 L486 142 L513 149 L484 139 L450 138 L420 146 Z M421 376 L422 379 L426 370 Z M597 361 L600 353 L603 353 L601 359 L602 379 L608 395 L622 419 L622 429 L619 435 L603 446 L599 446 L599 443 L613 433 L616 427 L616 420 L598 384 Z M590 951 L591 953 L596 942 L599 897 L607 875 L601 883 L597 896 L595 906 L595 935 L593 946 Z M530 472 L536 470 L540 474 L558 477 L594 477 L609 473 L614 469 L617 470 L615 476 L592 483 L546 481 L532 477 Z M651 199 L665 219 L687 267 L689 268 L686 246 L679 229 L671 217 Z M632 599 L632 612 L634 613 L634 603 L639 585 L656 554 L646 564 L639 576 Z M384 558 L385 562 L395 572 L408 578 L412 577 L413 564 L402 563 L393 558 Z M607 725 L608 731 L614 742 L634 760 L632 755 L614 738 Z M573 439 L582 435 L589 435 L592 437 L592 439 L584 439 L577 442 L574 442 Z M594 716 L595 730 L598 737 L601 739 L596 724 L596 713 Z M653 768 L653 770 L655 770 L668 759 L677 745 L662 762 Z M634 864 L637 902 L638 882 Z M608 565 L630 585 L626 577 L619 570 Z M631 797 L632 799 L636 790 L644 782 L663 771 L649 775 L639 784 L632 771 L637 786 Z M675 551 L682 561 L689 578 L691 587 L691 609 L696 597 L695 576 L686 560 Z M686 749 L689 748 L693 740 L694 725 L691 739 Z M293 331 L293 348 L295 351 L296 344 L304 327 L315 315 L312 315 L305 326 L303 326 L304 296 L302 297 L296 314 Z M677 349 L678 368 L683 390 L689 378 Z M579 592 L584 600 L594 609 L633 629 L624 620 L588 602 Z M665 800 L666 801 L669 797 L672 788 Z M608 779 L614 797 L620 802 Z M582 648 L582 663 L585 672 L587 672 L588 670 Z M374 410 L374 418 L376 422 L382 426 L380 415 L384 408 L384 404 L377 405 Z M568 499 L588 500 L600 496 L597 502 L590 505 L576 505 L571 503 Z M578 882 L579 884 L587 867 L602 849 L589 861 Z M589 678 L593 682 L592 678 Z M397 313 L398 314 L400 311 Z" fill="#111111" fill-rule="evenodd" clip-path="url(#aya-avatar-clip)"/>
  <defs><clipPath id="aya-avatar-clip"><circle cx="512" cy="512" r="498"/></clipPath></defs>
</svg>
